<?xml version="1.0" encoding="UTF-8" standalone="no"?>
<svg
   id="uuid-66ea216a-482b-49b0-ba99-e02424b217bc"
   data-name="rss2newsletter"
   viewBox="0 0 78.07 77.87"
   version="1.1"
   sodipodi:docname="rss2newsletter.svg"
   xml:space="preserve"
   inkscape:export-filename="rss2newsletter.svg"
   inkscape:export-xdpi="95.913925"
   inkscape:export-ydpi="95.913925"
   inkscape:version="1.3 (0e150ed6c4, 2023-07-21)"
   xmlns:inkscape="http://www.inkscape.org/namespaces/inkscape"
   xmlns:sodipodi="http://sodipodi.sourceforge.net/DTD/sodipodi-0.dtd"
   xmlns="http://www.w3.org/2000/svg"
   xmlns:svg="http://www.w3.org/2000/svg"><sodipodi:namedview
     id="namedview1"
     pagecolor="#ffffff"
     bordercolor="#000000"
     borderopacity="0.25"
     inkscape:showpageshadow="2"
     inkscape:pageopacity="0.0"
     inkscape:pagecheckerboard="0"
     inkscape:deskcolor="#d1d1d1"
     inkscape:zoom="8"
     inkscape:cx="46.25"
     inkscape:cy="44"
     inkscape:window-width="1499"
     inkscape:window-height="1024"
     inkscape:window-x="419"
     inkscape:window-y="24"
     inkscape:window-maximized="1"
     inkscape:current-layer="uuid-66ea216a-482b-49b0-ba99-e02424b217bc" /><defs
     id="defs1"><style
       id="style1">&#10;      .uuid-b5475ac9-e8f8-4f0b-95be-dcbf364fb281 {&#10;        fill: #347abd;&#10;        stroke-width: 0px;&#10;      }&#10;    </style><style
       id="style2">&#10;      .uuid-a239782c-8599-4893-b943-18a0e6d8a898 {&#10;        fill: #fcfcfc;&#10;      }&#10;&#10;      .uuid-a239782c-8599-4893-b943-18a0e6d8a898, .uuid-b3e5940f-ab68-4624-87ee-b4068b7086b4 {&#10;        fill-rule: evenodd;&#10;        stroke-width: 0px;&#10;      }&#10;&#10;      .uuid-b3e5940f-ab68-4624-87ee-b4068b7086b4 {&#10;        fill: #ed8333;&#10;      }&#10;    </style></defs><path
     style="fill:#ffffff;fill-opacity:0.996416;stroke:#6be47b;stroke-width:0;stroke-linecap:butt;stroke-linejoin:bevel;stroke-miterlimit:0;stroke-dasharray:none;stroke-opacity:0.464481;paint-order:normal"
     d="M 4.0859849,71.442299 4.0350016,37.096123 5.8703985,32.498926 11.447966,28.63728 16.281178,3.9350036 h 45.568827 l 4.782228,24.8146524 5.394028,3.759485 1.957757,4.495039 0.05098,34.427903 -4.741442,2.410976 L 8.735657,73.934999 4.0859849,71.442296 4.0350019,37.09612 Z"
     id="background"
     inkscape:label="background" /><path
     class="uuid-b5475ac9-e8f8-4f0b-95be-dcbf364fb281"
     d="m 78.01,32.65 c 0,-0.15 -0.03,-0.36 -0.09,-0.52 C 77.77,31.61 77.44,31.15 77,30.84 L 66.09,23.26 66.12,2.36 C 66.13,1.06 65.07,0 63.77,0 h -49.4 c -1.3,0 -2.36,1.06 -2.36,2.36 L 11.98,23.17 1.02,30.74 c -0.62,0.43 -1,1.13 -1.01,1.89 0,0.02 0,0.04 0,0.06 l 0.06,42.92 c 0,0.63 0.25,1.22 0.69,1.67 0.45,0.44 1,0.59 1.64,0.59 h 73.33 c 1.3,0 2.36,-1.07 2.35,-2.37 L 78.02,32.64 Z M 6.5,32.68 11.97,28.9 v 7.57 L 6.5,32.69 Z m 59.59,3.68 v -7.35 l 5.29,3.68 -5.29,3.68 z M 73.34,70.79 50.41,53 73.3,37.09 73.35,70.79 Z M 37.61,45.32 31.56,50.01 16.68,39.73 16.71,4.72 H 61.4 l -0.03,34.92 -14.87,10.34 -6,-4.65 c 0,0 -0.03,-0.02 -0.03,-0.02 -0.85,-0.64 -2.02,-0.63 -2.86,0.02 z M 68.7,73.16 9.31,73.24 39.06,50.16 68.7,73.15 Z M 27.65,53.04 4.75,70.8 4.7,37.18 27.64,53.04 Z"
     id="email"
     style="fill:#1c3343;fill-opacity:1"
     inkscape:label="email" /><path
     id="rss"
     style="fill:#347bbd;fill-rule:evenodd;stroke-width:0px"
     class="uuid-b3e5940f-ab68-4624-87ee-b4068b7086b4"
     inkscape:label="rss"
     transform="matrix(0.06016707,0,0,0.06016707,8.9514652,-6.7577093)"
     d="m 619.19,605.78 h 72.26 l 13.41,13.41 v 72.26 l -13.41,13.41 H 619.19 L 605.78,691.45 V 619.19 Z M 704.86,450.46 H 515.23 l -64.77,64.77 v 189.63 h 99.08 V 556.27 l 6.73,-6.73 H 704.86 Z M 450.9,295.14 295.15,450.9 295.14,704.86 h 99.09 V 491.94 l 97.71,-97.72 h 212.92 v -99.08 z" /></svg>
